<svg id="Layer_1" data-name="Layer 1" xmlns="http://www.w3.org/2000/svg" viewBox="0 0 134 177"><defs><style>.cls-2{fill:#f68a49}.cls-3{fill:#1d84b6}.cls-5{fill:#29b34b}</style></defs><path style="stroke-miterlimit:10;fill:#e4c645;stroke:#e3c645;stroke-width:3.46px" d="m112.64 36.13-8.53-3.63-8.09 4.51 1.13-8.7-7.05-5.74 9.22-1.76 3.74-8.06 4.57 7.62 9.36.76-6.4 6.46 2.05 8.54z"/><path class="cls-2" d="M94.42 105.85h20.08v20.28H94.42z"/><path class="cls-3" d="M114.5 45.79v18.28H94.42V45.79c12.92 13.51 20.08 0 20.08 0Z"/><path d="M60.07 89.57C53.91 91.5 47 94.71 41.52 100c-1.83-2.64-6.76-4.43-17-4.19l-9.8-17.39L36 69c-13-14.88-8.39-24.76.3-28.39-.02-.05 15.92 18.94 23.77 48.96Z" style="fill:#c91b72"/><path class="cls-5" d="M64.36 122.16C50.9 127.08 40 138.23 40 138.23l-7.77-20.29S46 106.43 41.52 100c5.48-5.29 12.39-8.5 18.55-10.43 2.56 9.78 4.29 32.59 4.29 32.59Z"/><path class="cls-3" d="M89.37 123.69c-8.08-5.18-17-4.46-25-1.53 0 0-1.73-22.81-4.29-32.59a66.63 66.63 0 0 1 15.41-3c.51 7.66 13.68 12.67 13.68 12.67Z"/><path class="cls-2" d="M75.46 86.16v.44a66.63 66.63 0 0 0-15.41 3c-7.85-30-23.79-49-23.79-49 11.25-4.69 29.38 1.07 25.37 19.93L81.59 46.3 86.33 74c-8.14 4.45-10.9 8.58-10.87 12.16Z"/><path class="cls-5" d="M94.42 85.95h20.08v19.9H94.42z"/><path style="fill:#ca1b72" d="M94.42 64.07h20.08v21.89H94.42z"/><path d="M41.08 100.42S50.64 89 75.77 86.6" style="fill:none;stroke:#fff;stroke-width:3px;stroke-miterlimit:10"/><path d="M20.26 162.11 26.18 145H32l6 17.11h-4.68l-.87-3.11h-6.64l-.89 3.07Zm6.55-6.41h4.66l-1.75-5.7c0-.1-.11-.38-.22-.84s-.26-1-.37-1.47c-.11.4-.2.8-.28 1.21s-.23.76-.31 1.1Zm12.92 6.41V145h4.72v17.16Zm9.64-9.6h10v4.88h-10Zm17.32 9.6V149h-3.85v-4h12.37v4h-3.85v13.1Zm28.42-8.54a9.14 9.14 0 0 1-.67 3.48 9 9 0 0 1-2 2.88 9.42 9.42 0 0 1-6.5 2.64 9.44 9.44 0 0 1-3.5-.69 8.76 8.76 0 0 1-3-1.95 8.56 8.56 0 0 1-2-2.91 9 9 0 0 1 5-11.78 9.09 9.09 0 0 1 3.5-.67 9.26 9.26 0 0 1 3.52.67 8.85 8.85 0 0 1 5.64 8.33Zm-9.17 5a4.2 4.2 0 0 0 3.24-1.44 4.79 4.79 0 0 0 .95-1.61 6.21 6.21 0 0 0 .3-2 5.27 5.27 0 0 0-1.28-3.6 4.15 4.15 0 0 0-3.21-1.44 4.1 4.1 0 0 0-3.22 1.52 5.28 5.28 0 0 0-1.27 3.6 5.21 5.21 0 0 0 1.25 3.62 4.19 4.19 0 0 0 3.24 1.39Zm16.48 3.54H98V145h4.9a19.55 19.55 0 0 1 4 .29 4.8 4.8 0 0 1 2 1 5.06 5.06 0 0 1 1.44 1.94 7.22 7.22 0 0 1 0 5.33 4.23 4.23 0 0 1-1.44 1.93 4.41 4.41 0 0 1-1.72.8 13.23 13.23 0 0 1-3.14.25h-1.64Zm0-9.43h.89a4.27 4.27 0 0 0 2.35-.48 2.14 2.14 0 0 0 0-3.09 4.2 4.2 0 0 0-2.32-.46h-.94Z" style="fill:#231f20"/></svg>